<?xml version="1.0" encoding="utf-8"?>
<!-- Generator: Adobe Illustrator 24.3.0, SVG Export Plug-In . SVG Version: 6.00 Build 0)  -->
<svg version="1.1" id="neko_logo" xmlns="http://www.w3.org/2000/svg" xmlns:xlink="http://www.w3.org/1999/xlink" x="0px" y="0px"
	 viewBox="0 0 502.1 501.53" style="enable-background:new 0 0 502.1 501.53;" xml:space="preserve">
<style type="text/css">
	.st0{fill:rgba(255,255,255,1);}
	@keyframes fade{
    from{
        opacity:0;
    }
    to{
        opacity:1;
    }
	}
	#maru{
		-webkit-animation:fade 1s linear;
	}
	#nekomiko {

	}
	#nekomiko{
		-webkit-animation:fade 2.5s ease-in;
	}
</style>
<g id="maru">
	<path class="st0" d="M251.12,0.02c136.76-1.59,256.12,113.13,250.8,260.33c-4.69,129.94-112.09,241.79-251.82,241.18
		c-68.94-0.3-128.43-24.93-176.72-73.36C20.47,375.09-3.67,309.67,0.45,234.69C7.28,110.46,111.17-0.62,251.12,0.02z M250.57,3.35
		C112.59,2.39,10.56,113.83,4.62,235.38c-7.47,152.97,114.56,261.59,244.52,261.63c139.36,0.04,243.3-110.63,248.09-236.96
		C502.77,114.21,384.78,1.34,250.57,3.35z"/>
	<path class="st0" d="M493.29,250.88c0.58,135.51-108.38,239.02-233.83,242.55c-69.43,1.95-129.67-21.27-178.93-70.01
		C29.57,373.01,5.67,310.79,8.62,239.28C13.7,115.92,115.3,7.18,252.81,7.55C384.43,7.9,494.66,116.51,493.29,250.88z M243.96,17.87
		c0.13-0.3,0.26-0.6,0.38-0.9c0.8-2.03,1.6-4.05,2.39-6.08c-1.7,1.29-3.54,2.43-5.03,3.93c-0.72,0.72-0.76,2.11-1.1,3.2
		c1.18-0.11,2.35-0.22,3.53-0.33c-1.07,2-2.21,3.97-3.18,6.01c-0.46,0.96-0.99,2.12-0.83,3.08c0.46,2.74,1.21,5.44,1.94,8.13
		c0.35,1.28,0.93,2.49,1.4,3.74c0.63-1.27,1.6-2.49,1.83-3.83c0.81-4.8,1.37-9.64,2.02-14.47c1.29,1.67,2.59,3.34,4.26,5.5
		c0,2.02,0,5.02,0,8.02c-0.25,0-0.5-0.01-0.75-0.01c-0.21-3-0.43-6-0.64-9c-0.74,0-1.49,0-2.23,0c-0.33,4.33-0.67,8.66-1.08,14.09
		c4.6-1.2,8.06-2.11,11.53-3.01c0.73-0.33,1.46-0.66,2.19-0.99c-8.95-2.29-4.17-4.68-2.08-7.06c-1.22-1.09-2.21-1.97-3.92-3.49
		c2.06-0.16,3.17-0.24,4.95-0.38c0,5.47,0,10.41,0,16.12c2-1.82,3.29-2.87,4.42-4.07c1.11-1.18,2.89-2.47,2.95-3.78
		c0.31-6.45,0.14-12.92,0.14-19.87c-2.15-0.14-4.38-0.29-6.52-0.42c-2.2,8.81-2.2,8.81-4.87,6.99c1.01-1.15,2.01-2.28,2.79-3.17
		c-2.3-1.81-4.26-3.35-6.96-5.47c-1.53,2.89-2.98,5.63-4.43,8.37C246.02,18.43,244.99,18.15,243.96,17.87z M90.26,100.06
		c2.03-1.95,4.06-3.89,6.1-5.84c0.36,1.86,0.15,4.22,1.23,5.43c1.21,1.35,3.59,1.66,5.47,2.42c-0.02-1.26-0.27-2.56-0.02-3.76
		c0.37-1.8,1.08-3.54,1.64-5.3c0.34,0.08,0.69,0.16,1.03,0.24c0,1.46,0,2.92,0,4.39c0.49,0.2,0.98,0.4,1.47,0.61
		c1.62-3.29,3.24-6.58,4.41-8.96c-3.04-3.05-5.53-5.55-8.16-8.18c-0.46,0.82-1.12,1.98-1.66,2.93c-0.3-2.2-0.6-4.44-0.91-6.69
		c-1.1,1.58-2.21,3.16-3.38,4.84c0.32-2.74,0.64-5.52,1.02-8.81c-1.86,0.38-2.94,0.77-4.02,0.79c-4.97,0.1-6.44,2.26-4.38,6.57
		c0.5,1.04,0.97,2.1,1.45,3.14c-1.72-1.64-3.43-3.28-6.38-6.1c0.08,7.6-4.7,9.22-10.12,11.28c4.12,4.25,7.69,8.12,11.54,11.67
		c0.55,0.5,2.51-0.53,3.82-0.86c0.3,2.29,0.61,4.59,0.9,6.84c1.52,0.27,3.16,0.82,4.76,0.73c0.77-0.04,2.17-1.38,2.1-2.01
		C97.64,100.76,94.56,99.46,90.26,100.06z M358.93,432.38c-2.84,0-5.68,0-9.32,0c-0.74,4.61-1.65,10.04-2.44,15.49
		c-0.16,1.08,0.03,3.16,0.36,3.22c4.65,0.89,5.5,5.15,7.72,8.2c0.35,0.48,1.39,0.47,2.11,0.68c0.13-0.86,0.64-1.92,0.32-2.55
		c-1.66-3.26-3.35-6.54-5.38-9.58c-2.6-3.9-2.14-7.14,1.61-9.82c-0.03,1.31-0.81,2.23-1.4,3.26c-0.41,0.72-0.57,1.58-0.84,2.38
		c0.85,0.13,1.72,0.45,2.54,0.35c0.89-0.11,1.73-0.61,2.8-1.02c1.76,3.1,3.34,5.87,4.91,8.65c-0.3,0.18-0.59,0.36-0.89,0.55
		c-1.68-2.51-3.37-5.03-5.05-7.54c-0.64,0.3-1.29,0.61-1.93,0.91c0.92,4.36,4.02,7.83,6.57,13.4c3.03-4.14,5.28-7.2,7.52-10.27
		c1.08,1.18,2.15,2.35,3.08,3.37c1.24-2.45,2.28-4.14,2.94-5.96c0.35-0.97,0.4-2.38-0.07-3.24c-3.22-5.95-6.62-11.81-9.91-17.61
		C357.29,427.69,357.19,427.84,358.93,432.38z M46.05,141.11c-1.93-0.72-3.87-1.43-6.6-2.45c1.98,5.54,1.32,10.63,7.37,12.62
		c4.84,1.6,9.13,4.9,13.9,7.58c1.43-2.65,2.49-4.61,3.6-6.67c-3.02-2-5.62-3.71-8.21-5.42c1.25-0.61,2.5-1.22,4.03-1.97
		c0.6,1.75,1.08,3.15,1.5,4.36c2.62-1.23,4.89-2.29,7.38-3.45c-1.36-3.9-2.61-8.08-4.31-12.06c-0.92-2.17-3.35-5.89-3.83-5.7
		c-4.28,1.69-6.69-1.69-9.87-2.88c-0.87-0.33-2.03,0.12-3.56,0.25c4.86,7,16.93,5.84,15.33,17c-0.82-0.89-0.88-2-0.94-3.11
		c-0.05-0.88-0.1-1.76-0.15-2.64c-0.93,0.36-1.94,0.59-2.76,1.12c-0.64,0.41-1.04,1.2-1.71,2.01c-2.93-1.67-5.7-3.25-8.46-4.82
		c0.2-0.37,0.4-0.73,0.6-1.1c1.96,1.08,3.87,2.28,5.92,3.19c0.7,0.31,1.72-0.11,2.6-0.2c-0.35-0.81-0.46-1.94-1.08-2.37
		c-2.46-1.7-5.03-3.27-7.67-4.67c-0.68-0.36-2.05-0.29-2.63,0.17C44.35,131.6,44.17,138.87,46.05,141.11z M197.6,27
		c1.24-2.08,2.48-4.17,3.7-6.24c-2.45-1.32-4.33-2.34-6.59-3.56c-0.63,2.31-1.15,4.23-1.69,6.25c1.65,1.22,3.18,2.34,4.71,3.46
		c-2.77,1.08-6.5,4.64-5.67-2.65c0.15-1.28-2.29-2.86-3.54-4.3c-0.67,1.17-1.23,2.43-2.04,3.5c-1.13,1.48-2.46,2.82-3.7,4.22
		c-0.28-0.2-0.55-0.4-0.83-0.6c0.67-1.34,1.34-2.67,2.01-4.01c-0.4-0.43-0.79-0.86-1.19-1.3c-2.92,2.31-5.84,4.62-7.93,6.28
		c1.79,4.44,3.2,7.91,4.6,11.39c0.29-0.2,0.59-0.41,0.88-0.61c-0.34,1.56-0.67,3.11-1.01,4.67c0.42,0.16,0.83,0.32,1.25,0.47
		c1.27-1.36,2.54-2.73,3.8-4.09c0.14,0.09,0.28,0.19,0.42,0.28c-1.48,2.41-2.95,4.82-4.69,7.66c1.7,0.43,2.85,0.85,4.03,0.99
		c1.69,0.21,4.1,0.95,4.95,0.15c1.12-1.06,1.74-3.6,1.31-5.15c-0.82-2.97-2.03-6.11-3.98-8.44c-2.91-3.49-1.57-5.72,0.6-8.06
		c2,6.96,3.99,13.88,5.98,20.79c0.52,0.1,1.04,0.21,1.57,0.31c2.78-5.39,7.41-5.54,13.4-4.6c-1.72-5.12-3.38-9.37-4.54-13.75
		C202.51,26.61,200.64,25.91,197.6,27z M250.97,47.98C139.07,49.14,50.9,136.23,50.33,247.79
		c-0.58,112.82,87.8,201.37,199.68,201.68c112.32,0.31,200.36-87.89,200.93-199.46C451.52,137.33,362.93,49.48,250.97,47.98z
		 M286.91,473.23c0.83,1.24,2.35,2.57,2.1,3.26c-1.91,5.26,3.53,4.71,5.09,5.17c2.72,0.8,5.02-1.73,4.34-4.99
		c-0.66-3.2-1.37-6.66-3.12-9.29c-2.39-3.59-1.31-5.85,1.23-8.59c1.35,7.38,2.66,14.49,3.73,20.36c5.82-1.26,10.23-2.22,15.15-3.29
		c-1.09-4.59-0.99-10.89-4-14.84c-2.5-3.29-2.21-4.56,0.31-7.3c-2.58-1.19-6.01-3.54-6.64-2.94c-3.23,3.07-1.23,6.38,1.53,9.48
		c-2.08,0.46-3.57,0.79-4.08,0.91c-1.12-3.5-2.1-6.55-3.41-10.65c-2.77,3.7-4.57,6.1-6.36,8.5c-0.33-0.24-0.66-0.49-1-0.73
		c0.66-1.3,1.33-2.61,1.99-3.91c-0.33-0.41-0.65-0.82-0.98-1.23c-3.04,2.02-6.07,4.05-9.02,6.01c1.35,2.53,2.68,4.53,3.46,6.72
		c0.36,1.02-0.37,2.42-0.61,3.65c1.26-0.43,2.52-0.86,4.19-1.43C289.44,469.91,288.27,471.44,286.91,473.23z M468.33,203.15
		c-5.37,3.44-9.72,6.23-14.43,9.24c4.74,3.2,24.98,2.39,28.74-1.93c-6.67,0.36-13.34,0.73-20.01,1.09c2.67-2.46,5.73-4,8.6-5.84
		c0.95-0.61,1.8-1.96,1.91-3.06c0.06-0.57-1.52-1.51-2.5-1.93c-2.21-0.92-4.52-1.62-6.79-2.41c4.11-1.61,8.16-2.03,12.17-2.7
		c0.91-0.15,1.69-1.16,2.52-1.78c-0.68-0.54-1.46-1.65-2.02-1.54c-7.64,1.39-15.25,2.94-22.86,4.53c-0.24,0.05-0.33,0.83-0.62,1.61
		C457.96,199.94,462.76,201.42,468.33,203.15z M303.32,32.41c-0.19,0.74-0.38,1.48-0.56,2.23c3.61,1.71,7.23,3.43,11,5.22
		c-1.35,3.12-2.45,5.65-3.55,8.17c-1.95-0.39-3.33-0.66-4.71-0.93c-0.29,0.45-0.59,0.91-0.88,1.36c1.43,1.06,2.79,2.91,4.31,3.06
		c7.08,0.71,4.6-7.39,9-9.92c2.58,1.06,5.43,2.34,8.37,3.39c0.74,0.26,1.75-0.22,2.63-0.36c-0.46-0.88-0.71-2.16-1.43-2.56
		c-2.68-1.47-5.52-2.65-8.74-4.15c3.79-3.59,10.02-1.29,12.36-7.1c-5.68-2.49-11.08-4.95-16.57-7.18c-0.89-0.36-2.19,0.27-3.31,0.45
		c0.76,0.89,1.35,2.12,2.32,2.61c3.15,1.61,6.44,2.95,9.95,4.52c-3.41,1.59-6.25,2.91-9.92,4.62c-0.95-0.41-2.89-1.35-4.91-2.05
		C306.94,33.19,305.11,32.86,303.32,32.41z M22.79,191.4c-0.52-0.29-1.05-0.58-1.57-0.87c-0.75,1.64-2.13,3.32-2.05,4.92
		c0.07,1.36,1.57,3.23,2.91,3.81c2.63,1.16,5.58,1.59,8.33,2.3c-1.55,11.04-1.55,11.04,0.58,12.44c1.16-3.85,2.28-7.6,3.75-12.49
		c2.04,4.12,3.31,6.99,4.87,9.69c0.49,0.84,1.83,1.75,2.67,1.66c0.73-0.08,1.64-1.45,1.89-2.4c1.24-4.83,2.37-9.68,3.32-14.57
		c0.19-0.98-0.58-2.14-0.91-3.21c-0.76,0.89-1.91,1.67-2.22,2.7c-1.03,3.44-1.75,6.96-2.79,11.3c-2.9-5.99-8.69-10.21-4.49-17.12
		c0.08-0.13,0.12-0.34,0.08-0.48c-0.27-0.85-0.57-1.68-0.86-2.52c-0.8,0.6-2.05,1.05-2.31,1.83c-0.98,2.96-1.63,6.03-2.39,8.97
		C23.52,197.07,22.71,196.5,22.79,191.4z M97.27,427.84c0.44,0.27,0.89,0.55,1.33,0.82c5.23-3.02,15.64-19.64,14.58-24.27
		c-4.88,2.45-9.63,4.83-15.04,7.53c1.44-5.73,2.69-10.72,4-15.92c-1.1,0-1.81-0.21-2.03,0.03c-5.17,5.63-10.31,11.27-15.34,17.02
		c-0.41,0.47,0.06,1.71,0.12,2.59c0.95-0.38,2.21-0.5,2.81-1.19c2.79-3.23,5.39-6.62,8.06-9.95c0.35,2.61-0.28,4.78-0.53,6.99
		c-0.17,1.5,0.2,3.07,0.33,4.6c1.54-0.37,3.19-0.5,4.59-1.15c2.45-1.14,4.75-2.59,7.12-3.91c0.21,0.27,0.42,0.55,0.63,0.82
		C104.36,417.19,100.81,422.52,97.27,427.84z M421.09,128.35c0.44,0.61,0.88,1.23,1.32,1.84c8.25-4.71,16.5-9.41,24.75-14.12
		c-0.22-0.6-0.44-1.2-0.66-1.8c-8.58,0-17.17,0-27.09,0c7.24-4.33,13.22-7.91,19.77-11.84c-4.12-1.7-23.85,9.13-27.36,14.42
		c8.15,0.44,15.92,0.86,24.49,1.33C431.11,122.3,424.94,123.82,421.09,128.35z M411.72,402.78c2.46-2.72,5-5.53,8.25-9.13
		c-6.55-1.27-7.36,5.89-11.78,6.49c-0.08-11.27-0.08-11.27-1.36-12.44c-4.55,4.15-9.12,8.25-13.56,12.47
		c-0.49,0.46-0.28,1.67-0.39,2.53c0.99-0.19,2.25-0.05,2.91-0.62c2.97-2.57,5.78-5.34,8.39-7.8c0.21,3.07,0.44,6.36,0.73,10.53
		c-1.31,1.4-3.45,3.5-5.35,5.8c-0.55,0.67-0.4,1.92-0.57,2.9c0.98-0.25,2.27-0.19,2.89-0.8c2.22-2.19,4.22-4.62,6.39-7.05
		c2.67,2.65,4.74,4.7,6.76,6.7c-0.87,1.51-1.57,2.72-2.27,3.93c0.37,0.42,0.75,0.84,1.12,1.26c1.55-1.21,3.96-2.12,4.48-3.67
		C420.32,408.02,413.15,407.47,411.72,402.78z M42.32,339.96c3.88-7.25,7.55-14.1,11.75-21.95c-10.11,2.85-25.72,12.05-27.37,16.95
		c7.24-3.82,13.43-7.08,19.63-10.35c-3.24,7.22-7.22,13.52-11.08,19.9c-0.56,0.93-0.53,2.22-0.78,3.34
		c1.04-0.17,2.24-0.08,3.11-0.56c6.25-3.45,12.45-7,18.63-10.57c1.17-0.67,2.19-1.59,3.28-2.4c-0.24-0.45-0.48-0.9-0.72-1.35
		C52.69,333.06,48.63,338.58,42.32,339.96z M472.57,250.51c-3.41,0.81-7.16,1.51-10.79,2.6c-3.56,1.07-4.26,3.66-4.24,7.35
		c0.03,7.9,15.23,14.43,22.83,9.7c3.55-2.21,6.17-4.62,5.87-8.93c-0.31-4.48-2.62-7.87-6.94-9.43
		C477.29,251.08,475.08,250.97,472.57,250.51z M157.2,438.92c-1.26-1.67-3.22-5-5.94-7.48c-1.1-1-4.83-1.01-5.75,0
		c-4.05,4.45-8.12,9.09-10.97,14.33c-2.15,3.95,0.06,8.11,3.61,10.92c3.55,2.82,7.19,2.54,11.03,0.18
		C155.13,453.22,156.48,447.43,157.2,438.92z M457.89,188.25c3.23-0.84,6.68-1.42,9.9-2.63c5.81-2.18,8.01-6.41,6.53-11.68
		c-1.31-4.67-6.7-8.56-11.69-6.94c-5.21,1.69-10.32,4.47-14.63,7.86c-3.99,3.13-2.47,9.06,2.42,11.42
		C452.6,187.32,455.16,187.56,457.89,188.25z M430.07,137.25c2.82-1.81,5.28-3.39,7.93-5.08c2.73,3.49,5.23,6.69,7.73,9.88
		c0.58-0.39,1.16-0.77,1.73-1.16c-2.06-3.51-4.12-7.03-6.14-10.47c7.58-6,7.57-5.99,12.22,1.56c0.78,1.27,1.55,2.61,2.6,3.64
		c0.58,0.57,1.72,0.56,4.04,1.23c-3.11-5.12-5.47-8.87-7.68-12.7c-1.51-2.62-3.28-2.82-5.72-1.24c-3.49,2.26-7.13,4.29-10.64,6.52
		c-10.95,6.94-11.33,10.43-2.12,19.93c0.62,0.64,1.77,0.76,2.67,1.12c0.25-0.29,0.5-0.58,0.75-0.87
		C435.05,145.59,432.65,141.57,430.07,137.25z M67.04,394.42c0.6,7.55,7.22,12.54,13.4,9.67c6.34-2.95,10.53-8.1,12.44-14.75
		c1.77-6.17-3.32-11.58-9.15-9.45c-4.54,1.66-8.81,4.47-12.64,7.48C69.11,388.92,68.35,392.02,67.04,394.42z M45.04,369.21
		c0.77-0.35,1.55-0.69,2.32-1.04c-1-2.39-1.83-4.86-3.04-7.14c-3.19-6.02-3.26-6,3-9.09c0.85-0.42,1.79-0.66,2.81-1.03
		c1.92,3.73,3.72,7.23,5.53,10.73c0.69-0.32,1.39-0.63,2.08-0.95c-1.49-3.78-2.98-7.56-4.57-11.6c2.92-1.46,5.54-2.76,8.5-4.24
		c2.46,4.56,4.69,8.72,6.93,12.87c0.79-0.41,1.58-0.83,2.37-1.24c-2.52-4.8-4.95-9.66-7.69-14.33c-0.31-0.54-2.6-0.45-3.62,0.05
		c-6.55,3.23-13.06,6.57-19.45,10.1c-0.99,0.55-2.18,2.61-1.85,3.36C40.36,360.28,42.77,364.72,45.04,369.21z M62.83,389.28
		c0.79-0.06,1.58-0.11,2.37-0.17c-0.37-4.83-0.75-9.65-1.13-14.6c5.5-0.46,10.68-0.89,15.86-1.32c-0.03-0.73-0.06-1.46-0.1-2.19
		c-4.67,0-9.34,0-14.01,0c-0.07-0.36-0.15-0.71-0.22-1.07c3.24-2.17,6.48-4.35,10.42-6.98c-5.48-1.22-23.9,10.53-25.05,15.67
		c3.13-1.61,5.75-2.97,9.2-4.75C61.13,379.45,61.98,384.36,62.83,389.28z M466.57,162.61c0.32-0.41,0.63-0.82,0.95-1.23
		c-3.81-3.39-7.61-6.78-11.79-10.51c3.24-2.04,5.77-3.63,8.3-5.22c-0.39-0.66-0.79-1.32-1.18-1.98c-8.64,3.64-17.13,7.6-25.08,12.6
		c0.33,0.75,0.67,1.5,1,2.25c3.54-1.63,7.08-3.27,11.6-5.35c-2.94,4.92-5.34,8.91-7.73,12.91c0.72,0.48,1.43,0.96,2.15,1.44
		c3.17-4.33,6.34-8.67,9.56-13.07C458.83,156.8,461.31,162.09,466.57,162.61z M486.36,236.54c-5.41-3.71-27.47-1.01-28.71,2.89
		c3.06-0.19,6.07-0.37,10.42-0.64c-3.88,3.25-6.71,5.61-9.54,7.97c0.51,0.68,1.03,1.36,1.54,2.04c4.51-3.23,9.02-6.45,13.46-9.64
		c8.76,9.14,8.76,9.14,11.75,8.81c-2.65-3.22-5.17-6.27-8.01-9.72C480.57,237.63,482.98,237.18,486.36,236.54z M123.63,437.38
		c1.52,4.31,2.88,8.15,4.23,11.99c0.67-0.19,1.35-0.38,2.02-0.57c-1.1-4.59-2.21-9.19-3.36-13.97c4.74-2.76,10.87-3.12,14.75-7.37
		c-0.21-0.49-0.42-0.97-0.63-1.46c-3.56,1.2-7.12,2.41-11.9,4.02c2.56-3.66,4.36-6.23,6.44-9.19c-5.09,0.38-18.32,18.04-17.48,23.33
		C119.74,441.83,121.41,439.92,123.63,437.38z M483.71,218.06c-7.96,5.79-16.13,3.51-23.29,5.25c-1-1.63-1.81-2.95-2.62-4.26
		c-0.56,0.14-1.13,0.29-1.69,0.43c0.55,3.26,1.1,6.51,1.47,8.68c9.93-2.18,18.5-6.89,28.27,1.5
		C484.97,224.88,484.32,221.36,483.71,218.06z M119.69,415.25c-3.03,4.08-5.83,8.23-9.05,12.02c-1.72,2.02-4.18,3.42-7.08,5.71
		c2.12,1.87,4.91,4.32,7.7,6.78c0.46-0.42,0.93-0.83,1.39-1.25c-0.87-1.58-1.75-3.16-2.9-5.23c5.81-4.84,7.29-13.72,16.81-16.79
		c-3.08-2.49-5.61-4.53-8.15-6.58c-0.39,0.45-0.78,0.89-1.17,1.34C118.06,412.58,118.88,413.93,119.69,415.25z M65.8,131.86
		c1.79,4.12,3.01,6.95,4.65,10.73C72.4,137.81,70.72,133.58,65.8,131.86z M342.88,443.93c0.63,0.04,1.26,0.08,1.89,0.12
		c3.02-5.07,2.96-7.95-0.67-9.38C343.68,437.88,343.28,440.9,342.88,443.93z"/>
	<path class="st0" d="M250.53,447.3c-111.04-1.73-198.1-87.76-198.09-198.82c0.01-109.98,87.3-200.74,203.51-197.93
		c106.09,2.56,193.33,86.43,192.36,200.37C447.38,360.52,361.54,445.32,250.53,447.3z M250.67,442.98
		c108.4-1.38,193.8-85.49,194.46-192.9c0.68-109.43-85.21-195.62-194.06-195.69C141.67,54.32,56.72,139.76,56.57,248.45
		C56.41,357.49,142.34,441.44,250.67,442.98z"/>
	<path class="st0" d="M263.69,17.1c0,4.93,0,9.86,0,14.79c-0.24-0.01-0.49-0.02-0.73-0.04c0-4.93,0-9.85,0-14.78
		C263.2,17.07,263.45,17.08,263.69,17.1z"/>
	<path class="st0" d="M361.6,438.74c2.21,3.38,4.41,6.75,6.62,10.13c-3.27-0.42-8.26,0.44-3.33-5.69c-1.99-0.46-3.29-0.76-4.85-1.12
		C360.61,440.84,361.11,439.79,361.6,438.74z"/>
	<path class="st0" d="M96.9,93.8c0.08-1.32,0.71-3.01,0.12-3.87c-1.55-2.27-3.63-4.17-5.5-6.21c2.72,1.57,5.81,2.75,8.05,4.84
		c1.45,1.36,1.67,4.04,2.91,7.42C99.52,94.82,98.21,94.31,96.9,93.8z"/>
	<path class="st0" d="M473.29,253.55c2.34,0.71,4.94,0.76,6.25,2.09c1.67,1.68,3.14,4.39,3.17,6.67c0.05,3.85-5.98,6.95-11,6.26
		c-6.12-0.84-11.55-5.17-10.9-9.07c0.22-1.31,1.7-2.96,2.99-3.44C466.86,254.9,470.15,254.34,473.29,253.55z"/>
	<path class="st0" d="M153.76,441.88c-0.25,5.23-1.42,10.16-6.82,12.27c-2.02,0.79-5.36,0.93-6.79-0.23
		c-1.69-1.38-2.99-4.65-2.67-6.83c0.81-5.54,4.49-9.6,9.27-12.34C150.47,432.61,153.96,436.28,153.76,441.88z"/>
	<path class="st0" d="M457.76,185.04c-2.36-0.6-4.23-0.78-5.8-1.55c-2.66-1.31-3.59-3.3-1.4-5.97c3.62-4.42,8.06-7.4,13.9-7.5
		c3.43-0.06,6.73,1.63,6.69,5.17c-0.03,2.4-1.92,5.64-3.97,6.96C464.41,183.93,460.69,184.22,457.76,185.04z"/>
	<path class="st0" d="M89.97,385.84c0.16,6.4-7.22,15.18-12.3,15.43c-1.84,0.09-4.89-0.97-5.4-2.28c-0.91-2.31-1.26-5.76-0.13-7.77
		c3.04-5.44,8.57-7.61,14.59-7.87C87.99,383.29,89.36,385.34,89.97,385.84z"/>
	<path class="st0" d="M45.42,144.83c4.75,2.71,9.51,5.41,14.26,8.12c-0.25,0.46-0.5,0.93-0.76,1.39c-4.76-2.7-9.52-5.41-14.28-8.11
		C44.91,145.76,45.16,145.3,45.42,144.83z"/>
	<path class="st0" d="M369.8,444.57c-2.72-4.76-5.43-9.51-8.15-14.27c0.45-0.26,0.91-0.52,1.36-0.78c2.7,4.76,5.4,9.53,8.1,14.29
		C370.68,444.06,370.24,444.32,369.8,444.57z"/>
</g>
<g id="nekomiko">
	<path class="st0" d="M379.88,221.13c-12.07,0.09-18.63-8.11-25.1-15.83c-1.92-2.28-2.45-6.73-1.91-9.89
		c1.9-10.97,4.55-21.81,6.93-32.7c0.45-2.04,0.92-4.08,1.38-6.12c-0.36-0.36-0.72-0.72-1.09-1.09
		c-13.76,7.86-27.52,15.73-40.99,23.42c2.41,2.03,6.45,3.81,6.55,5.81c0.32,6.2-0.59,12.52-1.67,18.68
		c-0.19,1.07-3.54,2.24-5.44,2.24c-8.32,0.04-16.65-0.62-24.96-0.49c-12.97,0.2-25.93,1.1-38.91,1.23
		c-15.95,0.15-31.91-0.19-47.86-0.31c-9.99-0.08-19.99-0.12-29.98-0.23c-12.14-0.13-13.28-1.17-14.53-13.12
		c-0.16-1.49-0.19-2.99-0.22-4.49c-0.14-6.98,0.91-8.24,7.91-9.64c1.28-0.26,2.54-0.66,4.97-1.31
		c-15.31-8.13-28.9-17.34-45.41-21.53c1.67,2.36,3.18,4.86,5.03,7.06c6.69,7.97,12.35,16.49,15.94,26.37
		c3.28,9.03,2.41,14.06-5.52,19.39c-6.86,4.61-14.36,8.26-22.39,12.79c0.19,2.51,0.53,6.1,0.7,9.7c0.77,16.21-4.03,31.6-6.72,47.33
		c-2.84,16.64-4.32,33.52,2.91,49.57c2.06,4.57,5.04,9.41,8.95,12.31c10.38,7.7,20.91,15.63,32.5,21.11
		c9.73,4.6,20.99,6.01,31.64,8.57c5.27,1.27,10.67,1.96,16.02,2.91c0.09,0.59,0.18,1.18,0.28,1.77c-1.48,0.48-3.09,1.59-4.43,1.33
		c-13.06-2.53-26.36-4.35-38.99-8.29c-8.69-2.71-16.67-8.07-24.54-12.92c-6.07-3.74-11.4-8.65-17.25-12.76
		c-1.37-0.96-3.62-1.39-5.28-1.08c-6.52,1.24-12.94,2.97-19.45,4.29c-1.15,0.23-2.51-0.61-3.78-0.96c1.09-1.04,2.03-2.7,3.31-3.02
		c4.51-1.11,9.16-1.65,13.71-2.64c2.05-0.44,3.97-1.44,6.12-2.24c-2.08-5.02-3.8-9.67-5.97-14.1c-0.59-1.21-2.48-2.23-3.92-2.49
		c-4.74-0.87-9.54-1.36-14.33-1.98c-1.16-0.15-2.44,0.05-3.46-0.39c-2.12-0.93-4.1-2.19-6.14-3.31c2.16-0.28,4.35-0.96,6.47-0.78
		c6.44,0.56,12.85,1.46,18.78,2.17c0.81-14.93,1.61-29.69,2.45-45.21c-2.13,2.07-4.49,3.82-6.15,6.08c-3.51,4.8-6.84,5.39-11.77,2
		c-1.49-1.03-3.58-1.45-5.44-1.62c-5.68-0.52-8.27-2.91-9.4-8.53c-0.3-1.48-1.43-3.71-2.54-3.95c-9.2-1.97-9.34-14.76-1.52-18.52
		c0.44-0.21,0.79-0.6,0.58-0.44c0-5.56-0.58-10.7,0.13-15.65c1.13-7.89,9.28-13.46,18.56-13.5c6.37-0.03,11.8,4.87,13.4,12.6
		c0.63,3.02,1.64,4.62,5.01,4.79c1.79,0.09,3.52,1.53,5.99,2.71c-0.43-7.45-1.41-14.49-1.11-21.48c0.77-18.4-3.48-36.97,1.3-55.18
		c3.21-12.25,2.95-12.77,13.46-8.42c11.03,4.57,21.64,10.19,32.34,15.53c5.06,2.53,9.85,5.6,14.91,8.14
		c1.88,0.95,4.16,1.1,6.97,1.79c-2.61-11.49-5.21-21.78-7.25-32.18c-3.33-16.96-6.79-33.93-9.23-51.03
		c-1.42-9.95-0.27-10.1,9.07-14.1c26.46-11.32,54.36-15.34,82.59-12.96c14.95,1.26,29.49,7.55,44.17,11.74
		c13.41,3.83,16.9,13.4,15.13,26.25c-2.71,19.6-4.93,39.27-7.66,58.87c-0.67,4.83-2.49,9.51-4.17,15.71
		c6.84-3.71,12.35-6.62,17.78-9.66c12.63-7.09,25.23-14.23,37.83-21.38c3.23-1.83,5.58-0.66,6.92,2.35
		c2.56,5.76,4.55,11.78,7.28,17.45c7.22,14.98,5.96,30.78,4.92,46.57c-0.51,7.8-2.1,15.58-1.94,23.35
		c0.17,8.4,1.69,16.79,2.81,25.16c2.38,17.84,4.56,35.68,1.74,53.69c-0.17,1.09,0.08,2.25,0.15,3.75
		c10.05-1.22,19.77-2.41,30.09-3.67c-1.84,4.3-18.48,7.82-30.34,7.55c-2.34,6.59-4.66,13.13-7.22,20.33
		c8.2,1.5,16.61,3.04,25.03,4.58c0.49,0.09,1.1-0.05,1.47,0.2c1.11,0.73,2.14,1.61,3.19,2.42c-1.36,0.57-2.81,1.78-4.07,1.61
		c-5.92-0.83-11.91-1.62-17.66-3.21c-7.41-2.05-12.97-0.69-18.79,4.86c-11.62,11.08-25.94,17.49-41.93,19.28
		c-21.48,2.41-42.99,4.84-64.55,6.13c-11.54,0.69-23.24-0.9-34.84-1.68c-3.35-0.23-5.3,0.91-6.62,3.88
		c-0.88,1.96-2.07,3.81-3.3,5.58c-2.35,3.37-3.01,6.57-1.19,10.66c3.63,8.16,0.08,14.54-6.2,19.76c-5.82,4.84-11.99,7.34-19.75,3.93
		c-7.6-3.34-13.03-8.88-16.74-15.83c-3-5.63,1.14-10.77,4.79-14.01c4.47-3.96,8.19-11.45,15.99-8.7c8.69,3.06,8.58,3.58,13.21-4.59
		c9.41-16.62,18.74-33.29,28.36-50.39c-1.57,0-3.13-0.16-4.66,0.03c-4.82,0.58-7.88-1.83-10.22-5.68c-2.41-3.97-2.3-8,0.12-11.78
		c0.69-1.07,2.56-1.39,3.89-2.05c-0.05,1.28-0.16,2.56-0.14,3.84c0.06,2.95-0.49,6.14,0.46,8.77c1.2,3.32,4.62,2.86,7.76,2.8
		c6.38-0.12,9.67-3.39,11.27-9.23c0.43-1.56,1.85-2.85,2.81-4.26c1.37,1.28,3.13,2.34,4.02,3.9c2.21,3.88,4.66,7.24,9.23,8.56
		c5.22,1.51,10.26-0.78,11.39-5.87c0.33-1.5-1.12-3.43-1.86-5.11c-0.39-0.89-1.01-1.69-1.53-2.52c0.98-0.47,1.95-1.3,2.95-1.34
		c3.28-0.12,5.81,3.7,5.25,7.63c-1.11,7.82-7.37,12.57-15.23,11.9c-1.5-0.13-3.8,0.37-4.55,1.42
		c-10.04,14.1-19.88,28.35-29.75,42.58c-0.25,0.36-0.23,0.91-0.44,1.85c6.21,0.56,12.26,1.43,18.32,1.6
		c20.98,0.59,41.93,0.72,62.68-3.49c7.63-1.55,15.52-1.84,23.18-3.28c18.04-3.41,33.32-11.87,43.74-27.2
		c3.69-5.44,6.28-12.29,7.24-18.81c3.37-22.92,2.01-45.87-2.73-68.48c-2.15-10.26-1.51-20.09,0.69-30.07
		C380.06,223.62,379.88,222.6,379.88,221.13z M196.4,142.14c-4.03,0.58-8.06,1.15-13.06,1.87c2.69,10.62,5.15,20.58,7.83,30.49
		c0.23,0.86,1.93,1.91,2.93,1.89c9.82-0.22,19.63-0.79,29.45-0.98c17.64-0.35,35.28-0.77,52.92-0.67c9.75,0.06,19.5,1.13,29.81,1.78
		c1.82-8.69,3.49-17.32,5.47-25.87c0.91-3.94-0.62-5.06-4.25-5.17c-10.97-0.33-21.93-0.8-32.9-1.28
		c-19.94-0.87-39.88-1.79-59.83-2.66c-1.86-0.08-3.73-0.01-5.92-0.01c3.85-7.62,3.32-11.69-1.51-15.29
		c-3.6-2.68-8.24-2.54-11.49,0.35C191.65,130.34,191.8,134.97,196.4,142.14z M80.68,237.2c-1.15,0.93-1.89,2.53,1.35,4.63
		c1.36,0.88,1.94,2.99,2.87,4.54c-1.33,0.51-2.64,1.09-3.99,1.52c-3.46,1.12-6.66,2.53-6.98,6.78c-0.32,4.28,2.82,5.48,6.07,5.8
		c3.73,0.36,4.08,2.32,3.91,5.42c-0.28,5.27,1.8,6.91,6.73,6.78c1.96-0.05,4.4,0.71,5.84,1.99c2.92,2.59,4.48,1.72,6.31-1.1
		c1.09-1.68,2.68-3.09,4.2-4.44c2.66-2.36,6.5-4.06,7.93-6.98c1.99-4.06,2.4-8.96,3.15-13.55c0.66-4.03-3.82-11.3-6.98-10.97
		c-5.74,0.6-6.02-2.64-7.09-7c-0.89-3.61-3.88-7.02-6.69-9.73c-1.49-1.44-4.53-1.15-3.24,2.93c-4.39-3.7-6.53-3.33-11.45,1.84
		c1.01,0.45,1.95,0.86,2.15,0.95c-1.52,1.12-3.83,2.02-4.6,3.64C79.45,231.79,80.37,234.07,80.68,237.2z M178.64,406.08
		c4.81-6.16,9.49-12.16,14.07-18.02c-3.65-0.21-11.64,5.85-13.94,11.09C177.77,401.43,175.16,404,178.64,406.08z M174.32,201.07
		c1.69-2.5,3.73-4.25,3.43-5.38c-0.41-1.56-2.58-2.66-4-3.95c-1.26,1.46-3.3,2.8-3.53,4.41
		C170.06,197.3,172.32,198.79,174.32,201.07z M190.11,108.86c-1.7,2.42-3.58,3.97-3.33,5.03c0.34,1.49,2.09,3.28,3.57,3.66
		c0.87,0.22,3.38-2.07,3.35-3.18C193.65,112.87,191.88,111.41,190.11,108.86z"/>
	<path class="st0" d="M276.58,258.74c-2.39,0.3-3.39,0.64-4.3,0.49c-1.02-0.17-1.95-0.79-2.93-1.22c0.59-1.06,1.05-2.91,1.8-3.04
		c4.59-0.79,4.58-4.08,5.27-7.66c1.22-6.29,6.15-8.59,12.32-8.99c-0.14-1.22-0.42-2.19-0.31-3.12c0.18-1.6,0.6-3.18,0.92-4.76
		c1.26,1.28,3.4,2.42,3.61,3.85c0.73,4.9,3.81,5.53,7.86,5.65c3.52,0.11,4.46-1.43,3.95-4.53c-0.16-0.99-0.64-2.05-0.41-2.94
		c0.29-1.1,1.16-2.05,1.77-3.06c0.92,0.8,2.12,1.44,2.69,2.44c0.54,0.94,0.57,2.26,0.56,3.41c-0.02,2.81,0.68,4.65,3.99,5.16
		c3.16,0.49,4.43-0.52,5.31-3.47c0.7-2.34,2.13-4.52,3.56-6.54c0.6-0.86,2.04-1.12,3.1-1.66c0.35,1.16,1.27,2.51,0.95,3.44
		c-0.9,2.62-2.31,5.08-3.93,8.46c4.34,0.44,8.19,1.03,12.05,1.07c1,0.01,2.05-1.68,3.02-2.65c1.4-1.38,2.75-2.82,4.12-4.23
		c0.15,2.05,0.3,4.09,0.43,6.14c0.02,0.33-0.03,0.66-0.09,1.89c2.74,0.32,5.55,0.64,8.34,0.97c1.43-2.85,2.51-5.46,4.03-7.78
		c0.52-0.79,2.16-0.83,3.3-1.21c0.23,1.06,0.47,2.11,0.68,3.17c0.03,0.14-0.04,0.36-0.15,0.47c-4.79,5.17-1.1,10.38-0.44,15.04
		c2.7,0.51,4.95,0.94,7.2,1.37c-1.68,1.49-3.84,2.7-4.92,4.54c-1.45,2.47-2.06,5.43-3.57,9.69c3.46-0.94,5.22-1.6,7.02-1.83
		c0.96-0.12,2.02,0.53,3.03,0.83c-0.33,1.01-0.41,2.25-1.06,2.97c-0.73,0.81-1.96,1.59-3,1.64c-8.06,0.32-7.73,7.66-10.67,11.52
		c2.21,1.9,3.94,3.38,5.66,4.86c-2.37,0.41-4.83,0.53-7.08,1.29c-3.19,1.09-6.21,2.66-8.77,3.79c-0.11,2.5-0.19,4.28-0.27,6.07
		c-1.62-0.52-3.21-1.32-4.86-1.5c-2.45-0.26-4.95-0.07-8.36-0.07c1.13,2.16,1.9,3.08,2.07,4.09c0.16,0.98-0.31,2.07-0.5,3.11
		c-1.06-0.2-2.76-0.05-3.09-0.65c-4.02-7.35-10.6-3.53-16.32-4.43c-0.34,1.77-0.18,3.48-0.94,4.2c-0.73,0.69-3.54,0.5-3.54,0.45
		c-1.06-8.36-10.02-6.66-13.61-11.47c-0.71,0.55-1.04,0.7-1.22,0.95c-1.23,1.73-2.42,3.48-3.63,5.22c-0.42-2.17-0.88-4.34-1.26-6.52
		c-0.42-2.43-0.76-4.87-1.29-8.25c-1.92,1.42-2.6,2.2-3.44,2.47c-0.96,0.31-2.56,0.6-2.99,0.11c-0.57-0.64-0.75-2.47-0.25-3.06
		c3.72-4.35,1.45-8.39-0.11-12.22c-2.02-0.59-3.74-1.09-5.46-1.59c0.81-1.51,1.84-2.96,2.36-4.56
		C275.5,264.34,275.85,261.99,276.58,258.74z M304.03,295.55c-6.03-8.6-6.45-17.08-5.59-25.5c0.86-8.37,2.77-16.63,4.32-25.51
		c-5.01-0.33-10.12-0.95-15.22-0.93c-4.71,0.02-7.08,2.7-7.33,7.61c-0.49,9.47,0.79,18.55,4.47,27.32
		C288.2,286.89,294.73,291.62,304.03,295.55z M337,292.96c3.81-3.24,7.13-5.11,9.12-7.93c6.96-9.89,8.49-21.1,6.47-32.84
		c-0.22-1.26-1.23-3.25-2.12-3.4c-4.93-0.81-9.95-1.16-15.02-1.68c0.98,8.14,2.31,15.17,2.55,22.24
		C338.24,276.59,337.43,283.87,337,292.96z"/>
	<path class="st0" d="M160.93,291.26c-0.66,1.03-0.87,1.49-1.2,1.84c-1.11,1.18-2.27,2.33-3.41,3.48c-0.41-1.6-1.52-3.42-1.11-4.78
		c1.93-6.33-5.13-7.03-6.45-12.51c-1.61,2.24-2.38,3.64-3.47,4.71c-0.71,0.7-1.9,0.92-2.87,1.35c-0.38-1.15-1.04-2.29-1.04-3.45
		c-0.01-0.89,0.74-1.82,1.26-2.66c3.39-5.55,3.39-5.65-0.33-10.93c-2.78,0.19-5.18,0.36-7.57,0.53c1.45-1.94,3.07-3.77,4.29-5.85
		c0.84-1.44,1.45-3.18,1.6-4.83c0.32-3.45-0.18-7.03,0.5-10.39c0.51-2.51,2.35-4.74,3.96-7.78c0.21,0.36-0.26-0.16-0.4-0.75
		c-0.49-1.99-0.86-4-1.27-6c1.66,1.01,3.62,1.73,4.93,3.08c3.74,3.86,4.37,4.12,14.85,2.82c-0.56-2.24-1.35-4.39-1.55-6.59
		c-0.09-1,0.96-2.11,1.5-3.18c0.91,0.58,2,1,2.66,1.79c0.6,0.72,0.91,1.81,1.04,2.78c0.74,5.57,4.78,4.99,8.65,4.75
		c4.47-0.28,3-3.86,3.64-6.37c0.64-2.51,1.66-4.92,2.51-7.37c4.13,1.57,1.88,5.06,2.25,7.72c0.22,1.61,0.04,3.28,0.04,4.86
		c8.28,2.58,10.01,1.86,13.33-5.39c0.21-0.45,0.29-1.05,0.63-1.34c1.31-1.14,2.7-2.19,4.06-3.27c0.05,1.8,0.35,3.64,0.06,5.39
		c-0.25,1.55-1.16,2.99-1.94,4.89c4.19,0.79,7.53,1.86,10.43-2.4c1.63-2.38,4.8-3.7,7.28-5.5c-0.72,2.74-1.44,5.48-2.22,8.46
		c1.34,2.36,2.87,5.57,4.92,8.42c0.82,1.14,2.75,1.54,4.24,2.12c1.93,0.74,3.93,1.32,5.9,1.97c-1.86,0.97-3.68,2.04-5.6,2.88
		c-0.85,0.38-1.9,0.32-3.39,0.54c0.28,3.09,0.53,5.97,0.78,8.77c0.86,0.25,1.34,0.36,1.79,0.53c1.56,0.58,3.1,1.18,4.65,1.77
		c-1.46,1.05-2.8,2.72-4.39,3.02c-5.37,1.02-3.46,6.13-5.39,8.29c1.37,1.79,2.45,3.2,3.53,4.62c-1.79,0.51-3.66,0.85-5.36,1.56
		c-3.32,1.39-6.56,2.98-9.83,4.49c0.64,1.34,0.75,1.65,0.92,1.92c0.91,1.5,1.83,2.99,2.75,4.48c-1.82-0.07-4.16,0.55-5.37-0.35
		c-4.77-3.55-8.49,0.94-13.16,0.57c0.45,1.26,0.81,1.84,0.83,2.44c0.05,1.35-0.07,2.7-0.12,4.05c-1.28-0.48-2.9-0.62-3.78-1.5
		c-2.11-2.09-3.67-4.63-7.38-3.98c-2.27,0.4-4.76-0.26-5.17,3.2c-0.05,0.39-3.24,0.8-3.27,0.73
		C171.81,292.29,165.28,294.02,160.93,291.26z M165.73,243.15c-6.07,0.79-11.09,1.37-16.09,2.12c-3.3,0.49-4.61,2.57-4.74,5.91
		c-0.43,11.32,3.1,21.35,10.25,29.89c4.37,5.22,10.21,8.46,18.03,8.76C164.46,275.38,162.31,260.47,165.73,243.15z M197.7,242.59
		c7.06,14.38,7.87,28.3,4.03,43.85c8.87-5.9,15.51-11.53,15.54-21.57c0.02-5.63-0.51-11.3-1.3-16.87c-0.22-1.58-2.03-3.93-3.43-4.18
		C208.04,242.99,203.39,242.98,197.7,242.59z"/>
	<path class="st0" d="M135.75,389.26c0.94-2.19,1.94-4.36,2.81-6.58c0.64-1.62,1.35-3.27,1.63-4.97
		c1.71-10.04,10.75-14.3,18.61-8.26c3.55,2.72,7.79,6.46,8.56,10.36c0.84,4.27-1.33,9.55-3.37,13.83
		c-1.74,3.64-5.89,4.41-10.01,4.03c-1.85-0.17-3.88-0.12-5.61,0.48C140.75,400.76,136.47,397.77,135.75,389.26z M145.39,381.3
		c0.41,0.31,0.82,0.62,1.23,0.93c-1.36,0.83-3.48,1.38-3.93,2.56c-0.99,2.58-1.34,5.48-1.44,8.26c-0.02,0.56,2.74,2.05,3.38,1.67
		c3.89-2.26,7.64-2.64,11.97-1.26c1.1,0.35,3.29-1.76,4.52-3.15c1.05-1.18,1.38-2.97,2.11-4.44c1.38-2.76,1.76-4.92-2.14-6.02
		c-1.2-0.34-2.72-2.12-2.82-3.35c-0.3-3.87-3.15-5.5-5.9-5.6c-2.11-0.08-4.98,1.76-6.26,3.62C145,376.17,145.57,379,145.39,381.3z"
		/>
	<path class="st0" d="M277.42,222.22c-2.02,1.18-3.02,1.88-4.12,2.38c-4.61,2.1-9.22,4.23-13.9,6.15c-0.98,0.4-2.29,0.01-3.45-0.02
		c0.18-1.2-0.01-3.19,0.6-3.48c5.59-2.63,11.28-5.05,17.05-7.27C274.24,219.74,275.51,221.07,277.42,222.22z"/>
	<path class="st0" d="M217.37,221.12c4.68,2.37,9.16,4.49,13.47,6.93c0.8,0.46,0.9,2.16,1.32,3.29c-1.3,0.16-2.8,0.81-3.88,0.38
		c-4.15-1.64-8.22-3.51-12.19-5.53c-1.07-0.54-1.7-1.93-2.54-2.93C214.74,222.59,215.94,221.93,217.37,221.12z"/>
</g>
</svg>
